1.9Hzlow3min_grf.mot
version=1
nRows=10
nColumns 19
inDegrees=yes
endheader
time	1_ground_force_vx	1_ground_force_vy	1_ground_force_vz	1_ground_force_px	1_ground_force_py	1_ground_force_pz	1_ground_torque_x	1_ground_torque_y	1_ground_torque_z	2_ground_force_vx	2_ground_force_vy	2_ground_force_vz	2_ground_force_px	2_ground_force_py	2_ground_force_pz	2_ground_torque_x	2_ground_torque_y	2_ground_torque_z
            0.005000	           -0.089376	           -0.184215	            0.916573	           -0.303393	            0.006164	           -0.394501	           -0.640904	           -0.081228	           -0.491411	            0.517075	           -0.548408	           -0.612256	           -0.321733	            0.005108	           -0.637521	           -0.376066	            0.102489	            0.038231
            0.005500	            0.001872	           -0.904277	            0.683974	           -0.303393	            0.006164	           -0.394501	           -0.517847	           -0.016789	           -0.412313	            0.705681	           -0.915024	           -0.895218	           -0.321733	            0.005108	           -0.637521	           -0.432403	            0.083783	           -0.074914
            0.006000	            0.094127	           -0.905243	            0.913026	           -0.303393	            0.006164	           -0.394501	           -0.640173	            0.093997	           -0.370028	            0.517740	           -0.732557	           -0.612913	           -0.321733	            0.005108	           -0.637521	           -0.319367	           -0.001019	           -0.037565
            0.006500	            0.048090	           -1.085124	            0.820655	           -0.303393	            0.006164	           -0.394501	           -0.636368	            0.260677	           -0.446464	            0.519693	           -1.284667	           -0.708740	           -0.321733	            0.005108	           -0.637521	           -0.319344	            0.007963	            0.094421
            0.007000	           -0.089976	           -1.264433	            0.590944	           -0.303393	            0.006164	           -0.394501	           -0.607619	            0.223476	           -0.414956	            0.565255	           -0.916536	           -0.613590	           -0.321733	            0.005108	           -0.637521	           -0.451148	            0.092563	            0.094780
            0.007500	           -0.043794	           -0.003548	            0.825520	           -0.303393	            0.006164	           -0.394501	           -0.618181	            0.112583	           -0.413496	            0.470267	           -0.548912	           -0.518380	           -0.321733	            0.005108	           -0.637521	           -0.357296	            0.093507	           -0.074912
            0.008000	           -0.273123	           -0.003395	            0.780233	           -0.303393	            0.006164	           -0.394501	           -0.616176	           -0.035499	           -0.405111	            0.656399	           -0.180441	           -0.376361	           -0.321733	            0.005108	           -0.637521	           -0.375879	            0.055091	            0.075763
            0.008500	           -0.089667	           -1.084757	            0.729284	           -0.303393	            0.006164	           -0.394501	           -0.557178	           -0.100109	           -0.397677	            0.659701	           -1.101015	           -0.426574	           -0.321733	            0.005108	           -0.637521	           -0.413398	            0.036184	            0.038011
            0.009000	           -0.044312	           -0.903696	            0.546520	           -0.303393	            0.006164	           -0.394501	           -0.587173	            0.011063	           -0.451572	            0.516349	           -0.363758	           -0.752383	           -0.321733	            0.005108	           -0.637521	           -0.356991	            0.026800	            0.075654
            0.009500	           -0.319062	           -0.724074	            0.685543	           -0.303393	            0.006164	           -0.394501	           -0.687016	            0.112519	           -0.443826	            0.706489	           -1.100344	           -0.567378	           -0.321733	            0.005108	           -0.637521	           -0.300899	            0.093375	            0.019315
